<svg width="44" height="44" viewBox="0 0 44 44" fill="none" xmlns="http://www.w3.org/2000/svg">
<path d="M38.5 22C38.5 21.2706 38.2103 20.5712 37.6945 20.0554C37.1788 19.5397 36.4793 19.25 35.75 19.25H13.97L21.1933 12.0267C21.6791 11.5053 21.9435 10.8158 21.931 10.1034C21.9184 9.39097 21.6298 8.71122 21.1259 8.20737C20.6221 7.70353 19.9424 7.41492 19.2299 7.40234C18.5175 7.38977 17.828 7.65423 17.3067 8.13999L5.39 20.0567C4.87502 20.5723 4.58575 21.2712 4.58575 22C4.58575 22.7287 4.87502 23.4277 5.39 23.9433L17.3067 35.86C17.828 36.3457 18.5175 36.6102 19.2299 36.5976C19.9424 36.5851 20.6221 36.2964 21.1259 35.7926C21.6298 35.2888 21.9184 34.609 21.931 33.8966C21.9435 33.1841 21.6791 32.4946 21.1933 31.9733L13.97 24.75H35.75C36.4793 24.75 37.1788 24.4603 37.6945 23.9445C38.2103 23.4288 38.5 22.7293 38.5 22Z" fill="#FFC04D"/>
</svg>
