<svg width="36" height="36" viewBox="0 0 36 36" fill="none" xmlns="http://www.w3.org/2000/svg">
<path d="M4.9375 2C3.33069 2 2 3.33069 2 4.9375V31.375C2 32.9818 3.33069 34.3125 4.9375 34.3125H31.375C32.9818 34.3125 34.3125 32.9818 34.3125 31.375V4.9375C34.3125 3.33069 32.9818 2 31.375 2H4.9375ZM4.9375 4.9375H31.375V31.375H23.7551V21.4609H27.5651L28.1158 17.0547H23.7566V14.2083C23.7566 12.9246 24.0709 12.0521 25.9127 12.0521H28.2994V8.05859C27.8926 8.00719 26.4811 7.92053 24.8582 7.92053C21.4727 7.92053 19.1667 9.95769 19.1667 13.75V17.0547H15.3113V21.4609H19.1653V31.375H4.9375V4.9375Z" fill="black"/>
</svg>
