<svg width="50" height="57" viewBox="0 0 50 57" fill="none" xmlns="http://www.w3.org/2000/svg">
<g clip-path="url(#clip0_8_36)">
<path d="M44.3819 34.236L47.7522 32.2904L50.0037 30.9887V14.4822L44.3866 17.7295L33.4725 24.0367L32.0532 24.8577L27.8554 27.2831L26.4361 28.104V56.9691L32.0532 53.7227V39.4982L33.6672 40.4354L38.7414 43.3669L44.3585 46.6142L49.9756 43.3678L44.3585 40.1205L39.2844 37.189L42.1285 35.5368L44.3819 34.236ZM36.5179 32.2904L33.6663 33.938L32.0523 34.8751V31.3504L33.4716 30.5294L39.0887 27.2831L44.3857 24.2222V27.7404L42.1388 29.0412L36.5179 32.2904Z" fill="#71C3FD"/>
<path d="M5.6162 24.2213V27.7423L7.89488 29.0599L13.512 32.3063L16.3365 33.9379L18.0057 34.9032L21.9536 37.1852L23.6229 38.1496V57L18.0057 53.7536L14.3087 51.6168L8.69158 48.3704L5.64522 46.6095L0.0280857 43.3631L5.64522 40.1177L11.2624 43.364L14.3087 45.1241L18.0057 47.2608V41.396L16.3365 40.4316L10.7194 37.1852L7.89488 35.5527L5.6162 34.235L2.27775 32.3063L0 30.9896V14.4831L5.6162 17.7285L16.5584 24.0526L18.0057 24.8895L22.1755 27.299L23.6229 28.1359V34.6286L19.3829 32.1779L18.0057 31.3823L16.5584 30.5454L10.9412 27.299L5.6162 24.2213Z" fill="#FFC04D"/>
<path d="M47.2036 12.8337L41.5865 16.0801L35.9693 12.8337L32.0486 10.5676L26.4315 7.32028L24.9991 6.49276L23.6229 7.28842L18.0058 10.5348L14.056 12.8178L18.0058 15.1007L23.6229 18.3471L25.0272 19.1578L26.4315 19.9703L30.6434 22.4051L26.4315 24.8389L25.0272 25.6514L23.6229 24.8399L19.41 22.4051L18.0058 21.5935L8.43883 16.0641L2.82263 12.8178L8.43977 9.57138L18.0058 4.04298L23.6229 0.795663L25 0L26.4315 0.827527L32.0486 4.0739L41.5874 9.58731L47.2036 12.8337Z" fill="#FF341B"/>
</g>
<defs>
<clipPath id="clip0_8_36">
<rect width="50" height="57" fill="white"/>
</clipPath>
</defs>
</svg>
