<svg width="74" height="84" viewBox="0 0 74 84" fill="none" xmlns="http://www.w3.org/2000/svg">
<g clip-path="url(#clip0_33_1216)">
<path d="M65.6853 50.453L70.6733 47.5859L74.0056 45.6675V21.3422L65.6922 26.1277L49.5393 35.4225L47.4388 36.6323L41.226 40.2066L39.1255 41.4165V83.9544L47.4388 79.1703V58.2079L49.8275 59.589L57.3373 63.9091L65.6506 68.6946L73.964 63.9105L65.6506 59.125L58.1409 54.8049L62.3502 52.37L65.6853 50.453ZM54.0466 47.5859L49.8261 50.0138L47.4374 51.3949V46.2006L49.5379 44.9908L57.8513 40.2066L65.6908 35.696V40.8806L62.3655 42.7976L54.0466 47.5859Z" fill="black"/>
<path d="M8.31198 35.6945V40.8833L11.6844 42.8252L19.9978 47.6093L24.178 50.0138L26.6485 51.4363L32.4914 54.7993L34.9618 56.2205V84L26.6485 79.2158L21.1769 76.0669L12.8635 71.2828L8.35493 68.6877L0.0415668 63.9035L8.35493 59.1208L16.6683 63.9049L21.1769 66.4986L26.6485 69.6475V61.0046L24.178 59.5835L15.8647 54.7993L11.6844 52.3934L8.31198 50.4516L3.37107 47.6093L0 45.6689V21.3435L8.31198 26.1263L24.5064 35.4459L26.6485 36.6793L32.8198 40.2301L34.9618 41.4634V51.0317L28.6866 47.4201L26.6485 46.2475L24.5064 45.0142L16.193 40.2301L8.31198 35.6945Z" fill="black"/>
<path d="M69.8614 18.9128L61.548 23.6969L53.2346 18.9128L47.4319 15.5733L39.1185 10.7878L36.9986 9.56827L34.9619 10.7408L26.6485 15.525L20.8028 18.8893L26.6485 22.2537L34.9619 27.0378L37.0402 28.2325L39.1185 29.4299L45.3522 33.018L39.1185 36.6047L37.0402 37.8021L34.9619 36.6061L28.7268 33.018L26.6485 31.822L12.4895 23.6735L4.17749 18.8893L12.4909 14.1052L26.6485 5.95807L34.9619 1.17256L37 0L39.1185 1.21951L47.4319 6.00365L61.5494 14.1287L69.8614 18.9128Z" fill="black"/>
</g>
<defs>
<clipPath id="clip0_33_1216">
<rect width="74" height="84" fill="white"/>
</clipPath>
</defs>
</svg>
